<svg xmlns="http://www.w3.org/2000/svg" viewBox="0 0 24 24" fill="none" aria-hidden="true">
  <path fill="#25D366" d="M12.04 2a9.9 9.9 0 0 0-8.5 15.1L2 22l4.99-1.3A9.9 9.9 0 1 0 12.04 2Z"/>
  <path fill="#fff" d="M17.5 14.1c-.3.8-1.4 1.4-1.9 1.5-.5 0-1.1.2-3.4-.7-2.9-1.1-4.7-3.6-4.8-3.7-.1-.2-.1-.5.1-.6.1-.1.2-.2.2-.3.1-.1.2-.2.2-.3.1-.1.1-.2 0-.3 0 0-1-2.1-1-2.1 0 0-.2-.1-.3 0a3.1 3.1 0 0 0-1.2 1.5c-.4 1.1-.1 2.1.3 2.6.3.5 1.2 1.7 2.2 2.5 1.2 1 2.4 1.3 2.6 1.3.1 0 .5 0 1.2-.1.6-.1 1.1-.2 1.2-.2.1 0 1-1.2 1-1.2l.1-.1c.1-.1.1-.2 0-.3 0 0-1-1-1-1.1Z"/>
</svg>
